<mxfile host="app.diagrams.net" agent="Mozilla/5.0 (Windows NT 10.0; Win64; x64) AppleWebKit/537.36 (KHTML, like Gecko) Chrome/129.0.0.0 Safari/537.36" version="24.7.16">
  <diagram name="Page-1" id="cs-93JfKSjwVCzdSiUG0">
    <mxGraphModel dx="3088" dy="1907" grid="1" gridSize="10" guides="1" tooltips="1" connect="1" arrows="1" fold="1" page="1" pageScale="1" pageWidth="827" pageHeight="1169" math="0" shadow="0">
      <root>
        <mxCell id="0" />
        <mxCell id="1" parent="0" />
        <mxCell id="X_wR6jChlvGeCeVIgnp7-4" value="Nurse" style="shape=umlActor;verticalLabelPosition=bottom;verticalAlign=top;html=1;outlineConnect=0;" vertex="1" parent="1">
          <mxGeometry x="-1590" y="305" width="30" height="60" as="geometry" />
        </mxCell>
        <mxCell id="X_wR6jChlvGeCeVIgnp7-7" value="Login" style="ellipse;whiteSpace=wrap;html=1;" vertex="1" parent="1">
          <mxGeometry x="-1250" y="20" width="120" height="80" as="geometry" />
        </mxCell>
        <mxCell id="X_wR6jChlvGeCeVIgnp7-8" value="" style="endArrow=none;html=1;rounded=0;entryX=0;entryY=0.5;entryDx=0;entryDy=0;exitX=0.5;exitY=0.5;exitDx=0;exitDy=0;exitPerimeter=0;" edge="1" parent="1" source="X_wR6jChlvGeCeVIgnp7-4" target="X_wR6jChlvGeCeVIgnp7-7">
          <mxGeometry width="50" height="50" relative="1" as="geometry">
            <mxPoint x="-1520" y="260" as="sourcePoint" />
            <mxPoint x="-1470" y="210" as="targetPoint" />
          </mxGeometry>
        </mxCell>
        <mxCell id="X_wR6jChlvGeCeVIgnp7-25" value="Virtual Triage" style="ellipse;whiteSpace=wrap;html=1;" vertex="1" parent="1">
          <mxGeometry x="-1280" y="110" width="120" height="80" as="geometry" />
        </mxCell>
        <mxCell id="X_wR6jChlvGeCeVIgnp7-26" value="" style="endArrow=none;html=1;rounded=0;entryX=1;entryY=0.5;entryDx=0;entryDy=0;exitX=0.5;exitY=0.5;exitDx=0;exitDy=0;exitPerimeter=0;" edge="1" parent="1" source="X_wR6jChlvGeCeVIgnp7-19" target="X_wR6jChlvGeCeVIgnp7-25">
          <mxGeometry width="50" height="50" relative="1" as="geometry">
            <mxPoint x="-990" y="280" as="sourcePoint" />
            <mxPoint x="-940" y="230" as="targetPoint" />
          </mxGeometry>
        </mxCell>
        <mxCell id="X_wR6jChlvGeCeVIgnp7-27" value="Assess Patient Virtual Triage&amp;nbsp;" style="ellipse;whiteSpace=wrap;html=1;" vertex="1" parent="1">
          <mxGeometry x="-1200" y="180" width="150" height="80" as="geometry" />
        </mxCell>
        <mxCell id="X_wR6jChlvGeCeVIgnp7-28" value="" style="endArrow=none;html=1;rounded=0;entryX=0;entryY=0.5;entryDx=0;entryDy=0;exitX=0.5;exitY=0.5;exitDx=0;exitDy=0;exitPerimeter=0;" edge="1" parent="1" source="X_wR6jChlvGeCeVIgnp7-4" target="X_wR6jChlvGeCeVIgnp7-27">
          <mxGeometry width="50" height="50" relative="1" as="geometry">
            <mxPoint x="-1420" y="300" as="sourcePoint" />
            <mxPoint x="-1370" y="250" as="targetPoint" />
          </mxGeometry>
        </mxCell>
        <mxCell id="X_wR6jChlvGeCeVIgnp7-30" value="Check Patient Medical History" style="ellipse;whiteSpace=wrap;html=1;" vertex="1" parent="1">
          <mxGeometry x="-1410" y="310" width="120" height="80" as="geometry" />
        </mxCell>
        <mxCell id="X_wR6jChlvGeCeVIgnp7-32" value="ED required" style="ellipse;whiteSpace=wrap;html=1;" vertex="1" parent="1">
          <mxGeometry x="-1220" y="320" width="120" height="95" as="geometry" />
        </mxCell>
        <mxCell id="X_wR6jChlvGeCeVIgnp7-37" value="&amp;lt;&amp;lt;includes&amp;gt;&amp;gt;" style="endArrow=none;dashed=1;html=1;rounded=0;entryX=0.5;entryY=1;entryDx=0;entryDy=0;exitX=0.5;exitY=0;exitDx=0;exitDy=0;" edge="1" parent="1" source="X_wR6jChlvGeCeVIgnp7-32" target="X_wR6jChlvGeCeVIgnp7-27">
          <mxGeometry width="50" height="50" relative="1" as="geometry">
            <mxPoint x="-1150" y="310" as="sourcePoint" />
            <mxPoint x="-1100" y="260" as="targetPoint" />
          </mxGeometry>
        </mxCell>
        <mxCell id="X_wR6jChlvGeCeVIgnp7-38" value="ED Not Required" style="ellipse;whiteSpace=wrap;html=1;" vertex="1" parent="1">
          <mxGeometry x="-1020" y="303" width="120" height="80" as="geometry" />
        </mxCell>
        <mxCell id="X_wR6jChlvGeCeVIgnp7-39" value="&amp;lt;&amp;lt;includes&amp;gt;&amp;gt;" style="endArrow=none;dashed=1;html=1;rounded=0;entryX=1;entryY=0.5;entryDx=0;entryDy=0;exitX=0.5;exitY=0;exitDx=0;exitDy=0;" edge="1" parent="1" source="X_wR6jChlvGeCeVIgnp7-38" target="X_wR6jChlvGeCeVIgnp7-27">
          <mxGeometry x="-0.0035" width="50" height="50" relative="1" as="geometry">
            <mxPoint x="-1020" y="300" as="sourcePoint" />
            <mxPoint x="-970" y="250" as="targetPoint" />
            <mxPoint as="offset" />
          </mxGeometry>
        </mxCell>
        <mxCell id="X_wR6jChlvGeCeVIgnp7-40" value="" style="endArrow=none;html=1;rounded=0;entryX=0;entryY=0.5;entryDx=0;entryDy=0;exitX=0.5;exitY=0.5;exitDx=0;exitDy=0;exitPerimeter=0;" edge="1" parent="1" source="X_wR6jChlvGeCeVIgnp7-4" target="X_wR6jChlvGeCeVIgnp7-30">
          <mxGeometry width="50" height="50" relative="1" as="geometry">
            <mxPoint x="-1470" y="380" as="sourcePoint" />
            <mxPoint x="-1420" y="330" as="targetPoint" />
          </mxGeometry>
        </mxCell>
        <mxCell id="X_wR6jChlvGeCeVIgnp7-41" value="Add Patient to ED Queue" style="ellipse;whiteSpace=wrap;html=1;" vertex="1" parent="1">
          <mxGeometry x="-1170" y="460" width="120" height="80" as="geometry" />
        </mxCell>
        <mxCell id="X_wR6jChlvGeCeVIgnp7-42" value="&amp;lt;&amp;lt;includes&amp;gt;&amp;gt;" style="endArrow=none;dashed=1;html=1;rounded=0;entryX=0.5;entryY=1;entryDx=0;entryDy=0;exitX=0.5;exitY=0;exitDx=0;exitDy=0;" edge="1" parent="1" source="X_wR6jChlvGeCeVIgnp7-41" target="X_wR6jChlvGeCeVIgnp7-32">
          <mxGeometry width="50" height="50" relative="1" as="geometry">
            <mxPoint x="-1240" y="480" as="sourcePoint" />
            <mxPoint x="-1190" y="430" as="targetPoint" />
          </mxGeometry>
        </mxCell>
        <mxCell id="X_wR6jChlvGeCeVIgnp7-43" value="Recommend alternative measures&amp;nbsp;" style="ellipse;whiteSpace=wrap;html=1;" vertex="1" parent="1">
          <mxGeometry x="-955" y="430" width="140" height="90" as="geometry" />
        </mxCell>
        <mxCell id="X_wR6jChlvGeCeVIgnp7-44" value="&amp;lt;&amp;lt;includes&amp;gt;&amp;gt;" style="endArrow=none;dashed=1;html=1;rounded=0;entryX=0.5;entryY=1;entryDx=0;entryDy=0;exitX=0.442;exitY=-0.037;exitDx=0;exitDy=0;exitPerimeter=0;" edge="1" parent="1" source="X_wR6jChlvGeCeVIgnp7-43" target="X_wR6jChlvGeCeVIgnp7-38">
          <mxGeometry width="50" height="50" relative="1" as="geometry">
            <mxPoint x="-890" y="420" as="sourcePoint" />
            <mxPoint x="-840" y="370" as="targetPoint" />
          </mxGeometry>
        </mxCell>
        <mxCell id="X_wR6jChlvGeCeVIgnp7-45" value="Logout" style="ellipse;whiteSpace=wrap;html=1;" vertex="1" parent="1">
          <mxGeometry x="-1380" y="440" width="120" height="80" as="geometry" />
        </mxCell>
        <mxCell id="X_wR6jChlvGeCeVIgnp7-46" value="" style="endArrow=none;html=1;rounded=0;entryX=0.5;entryY=0.5;entryDx=0;entryDy=0;entryPerimeter=0;exitX=0;exitY=0.5;exitDx=0;exitDy=0;" edge="1" parent="1" source="X_wR6jChlvGeCeVIgnp7-45" target="X_wR6jChlvGeCeVIgnp7-4">
          <mxGeometry width="50" height="50" relative="1" as="geometry">
            <mxPoint x="-1460" y="500" as="sourcePoint" />
            <mxPoint x="-1410" y="450" as="targetPoint" />
          </mxGeometry>
        </mxCell>
        <mxCell id="X_wR6jChlvGeCeVIgnp7-48" value="Nurse Use Case Diagram" style="swimlane;whiteSpace=wrap;html=1;" vertex="1" parent="1">
          <mxGeometry x="-1520" y="-10" width="720" height="630" as="geometry" />
        </mxCell>
        <mxCell id="X_wR6jChlvGeCeVIgnp7-49" value="Secondary Actor" style="swimlane;whiteSpace=wrap;html=1;startSize=45;" vertex="1" parent="1">
          <mxGeometry x="-780" y="170" width="70" height="205" as="geometry" />
        </mxCell>
        <mxCell id="X_wR6jChlvGeCeVIgnp7-19" value="Patient" style="shape=umlActor;verticalLabelPosition=bottom;verticalAlign=top;html=1;outlineConnect=0;" vertex="1" parent="X_wR6jChlvGeCeVIgnp7-49">
          <mxGeometry x="20" y="75" width="30" height="60" as="geometry" />
        </mxCell>
        <mxCell id="X_wR6jChlvGeCeVIgnp7-50" value="Primary Actor" style="swimlane;whiteSpace=wrap;html=1;startSize=40;" vertex="1" parent="1">
          <mxGeometry x="-1615" y="243" width="80" height="200" as="geometry" />
        </mxCell>
      </root>
    </mxGraphModel>
  </diagram>
</mxfile>
